# xmcd
#
# Track frame offsets: 
#        150
#        16007
#        34021
#        47740
#        64880
#        82679
#        99081
#        113750
#        133129
#        151368
#        172880
#        191211
#        209899
#        226305
#
# Disc length: 3254 seconds
#
# Revision: 1
# Processed by: cddbd v1.5.2PL0 Copyright (c) Steve Scherf et al.
# Submitted via: ExactAudioCopyFreeDBPlugin 1.0
#
DISCID=b00cb40e
DTITLE=Saara Aalto - Blessed with love
DYEAR=2011
DGENRE=Pop
TTITLE0=You Are Home
TTITLE1=Shelter
TTITLE2=Blessed with Love
TTITLE3=I Breathe You
TTITLE4=Can I Keep the Pictures?
TTITLE5=Out of Sight, Out of Mind
TTITLE6=Empty Show
TTITLE7=Letting Go
TTITLE8=Meant to Be
TTITLE9=Hope
TTITLE10=Forgiveness
TTITLE11=Ready to Go Home
TTITLE12=Cage Bird (feat. Petteri Sariola)
TTITLE13=Varpaisillaan
EXTD=
EXTT0=
EXTT1=
EXTT2=
EXTT3=
EXTT4=
EXTT5=
EXTT6=
EXTT7=
EXTT8=
EXTT9=
EXTT10=
EXTT11=
EXTT12=
EXTT13=
PLAYORDER=
